<?xml version="1.0" encoding="UTF-8"?>
<svg id="_Слой_2" data-name="Слой 2" xmlns="http://www.w3.org/2000/svg" viewBox="0 0 284.94 284.22">
  <defs>
    <style>
      .cls-1, .cls-2 {
        fill: #3e99ad;
      }

      .cls-2 {
        opacity: .49;
      }
    </style>
  </defs>
  <path class="cls-1" d="M252.2,119.62c-1.01.23,2.41,10.98,2.35,23.55-.1,25.35-14.36,69.17-47.1,73.68-26.76,3.68-53.89-20.54-60.89-45.75-2.12-7.64-2.17-14.57-1.68-19.85,3.13-.5,6.16-1.24,9.08-2.18,9.01,3.33,17.02,4.75,22.89,5.38-4.27-2.06-9.36-4.86-14.8-8.62,13.72-6.72,23.93-18.24,28.42-31.35,8.45-.97,15.48-2.65,20.73-4.2-5.33-.08-11.83-.46-19.16-1.51.62-3.01.95-6.07.95-9.16,0-8.02-2.21-15.27-5.9-21.63,5.03-2.24,9.21-4.62,12.45-6.69-4.22.97-9.37,1.88-15.27,2.38-11.33-15.46-31.7-24.62-48.79-25.03-9.34-.22-17.73,2.33-25.06,6.24-5.54-2.79-11.87-6.56-18.39-11.67-10.02-7.84-16.98-16.09-21.57-22.46,2.07,7.16,5.95,17.46,13.5,28.23,4.39,6.26,9.02,11.26,13.22,15.16-2.81,2.46-5.35,5.01-7.62,7.51-6.82-2.04-14.82-4.98-23.45-9.3-13.19-6.6-23.25-14.12-30.18-20.04,4.5,7.15,11.93,17.29,23.43,27.34,7.24,6.33,14.3,11.06,20.35,14.56-1.08,1.59-1.91,2.9-2.48,3.78-2.8,4.38-5.29,9.06-7.47,13.97-2.06.14-4.18.24-6.39.27-12.72.13-23.31-1.96-30.87-4.08,6.09,4.3,15.55,9.92,28.18,13.62,1.64.48,3.25.9,4.83,1.27-15.48,46.92-5.45,108.81,32.18,139.28-1.69,8.51,8.02,24.35,18.65,26.05,6.93,1.1,14.02-3.85,19.1.39,2.5,2.09,2.62,4.83,5.22,5.36,3,.62,6.99-2.16,7.73-5.45.61-2.71-1.14-5.1-3.47-8.04,26.99,2.02,49.53-7.53,51.41-8.36,35.56-15.69,49.97-47.13,55.51-59.24,9.42-20.56,10.01-37.1,10.09-40.71.54-23.33-8.37-43.04-9.76-42.73Z"/>
  <path class="cls-2" d="M96.74,53.76c8.39-5.29,3.83-24.4-1.51-24.54-2.96-.08-5.13,5.68-8.71,5.69-4.09,0-4.49-7.53-7.98-14.77C72.04,6.68,56.98-1.46,54.18.22c-2.2,1.32,1.87,9.51,4.96,15.73,6.77,13.64,14.07,20.52,11.81,22.4-2.34,1.95-12.2-3.75-13.58-2.34-1,1.02,3.03,5.13,7.92,8.54,1.12.78,22.06,15.14,31.45,9.22Z"/>
  <path class="cls-2" d="M141.64,85.44c1.13,9.86,20.33,14.02,22.77,9.26,1.35-2.63-2.9-7.09-1.35-10.31,1.77-3.68,8.73-.79,16.78-.8,14.94-.03,28.8-10.09,28.5-13.33-.23-2.55-9.38-2.43-16.32-2.34-15.22.19-24.59,3.8-25.3.95-.75-2.95,8.67-9.38,7.99-11.23-.48-1.34-5.93.51-11.13,3.44-1.19.67-23.2,13.33-21.93,24.36Z"/>
  <path class="cls-2" d="M150.1,116.82c-.17,9.92,18.32,16.56,21.36,12.17,1.69-2.43-1.95-7.41,0-10.4,2.23-3.42,8.75.36,16.74,1.4,14.81,1.93,29.87-6.23,30-9.48.1-2.56-8.98-3.64-15.88-4.46-15.12-1.8-24.87.54-25.21-2.37-.35-3.02,9.82-8.16,9.4-10.09-.31-1.39-5.95-.27-11.48,1.96-1.27.51-24.74,10.17-24.93,21.27Z"/>
  <path class="cls-2" d="M122.66,127.48c-5.75,8.09,5.75,24.02,10.75,22.11,2.77-1.05,2.58-7.21,5.88-8.58,3.78-1.56,7.02,5.25,13.01,10.62,11.13,9.97,28.16,11.75,30.11,9.14,1.53-2.05-5.35-8.08-10.57-12.65-11.45-10.03-20.82-13.61-19.46-16.21,1.42-2.69,12.71-1.18,13.45-3.01.53-1.32-4.76-3.58-10.58-4.88-1.34-.3-26.16-5.59-32.59,3.46Z"/>
  <path class="cls-2" d="M64.18,107.62c4.48-8.85-9.27-22.89-13.93-20.26-2.58,1.46-1.48,7.52-4.54,9.36-3.5,2.11-7.72-4.14-14.45-8.56-12.49-8.19-29.6-7.41-31.13-4.54-1.21,2.26,6.49,7.19,12.34,10.94,12.82,8.21,22.62,10.35,21.66,13.12-1,2.87-12.39,3.07-12.85,4.98-.33,1.38,5.24,2.83,11.19,3.24,1.37.09,26.7,1.63,31.71-8.28Z"/>
  <path class="cls-2" d="M73.08,72.84c8.3-6.67,1.36-25.05-4.32-24.32-3.14.41-4.81,6.53-8.59,7.12-4.33.67-5.59-6.8-10.09-13.48-8.37-12.41-25.23-18.08-28-15.95-2.18,1.68,3.03,9.21,6.99,14.94,8.68,12.55,17.17,18.24,14.99,20.49-2.26,2.33-13.34-1.76-14.65-.12-.94,1.18,3.78,4.64,9.34,7.25,1.28.6,25.04,11.54,34.33,4.08Z"/>
  <path class="cls-2" d="M141.59,196.15c7.86-2.3,13.99,4.37,24.96,0,6.98-2.78,7.69-6.74,12.98-6.67,4.67.06,6.09,3.17,17.89,10.18,5.53,3.28,8.34,4.92,10.91,4.91,6.5-.02,13.28-5.87,15.76-12.63,3.52-9.61-3.91-14.87,0-22.46,2.94-5.72,8.03-4.41,15.44-11.58,5.9-5.71,8.75-12.42,9.82-15.87,6.11-19.69-13.66-36.83-8.07-43.2,3.72-4.24,16.16-.89,24.21,5.04,12.35,9.09,18.17,27.03,16.14,42.11-1.76,13.11-8.96,20.4-4.56,30.18,2.18,4.84,4.82,5,6.67,10.53,2.21,6.62,1.48,15.55-3.16,22.11-5.41,7.66-11.33,5.28-20.7,15.09-1.71,1.79-5.36,5.67-8.07,11.58-4.46,9.71-1.51,14.24-3.86,22.11-3.74,12.5-17.55,22.33-29.74,23.86-5,.63-3.1-.98-25.34-3.86-11.74-1.52-17.17-1.71-20.35-1.75-11.19-.16-12.54,1.23-17.19.7-13.19-1.48-24.61-15.08-29.12-27.37-7.95-21.67,2.01-49.07,15.39-52.98Z"/>
</svg>