<?xml version="1.0" encoding="UTF-8"?>
<svg id="_Слой_4" data-name="Слой 4" xmlns="http://www.w3.org/2000/svg" viewBox="0 0 284.94 284.22">
  <defs>
    <style>
      .cls-1 {
        fill: #3e99ad;
      }
    </style>
  </defs>
  <path class="cls-1" d="M264.52,141.37c.12-35.37,8.06-63.7,14.66-81.71-23.32,4.75-32.45,13.93-36.49,21.4-4.64,8.58-2.04,13.95-8.75,39.6-4.47,17.07-7.68,22.55-11.95,23.26-3.52.59-7.01-2.19-9.53-4.87-4.22-5.63-10.88-13.98-19.94-23.25-12.68-12.96-23.97-24.61-36.25-32.85.14-4.42,1.04-9.44,3.76-14.43,4.77-8.77,12.61-12.88,16.67-14.61-5.16-1.29-37.88-9-61.52,7.52-4.42,3.09-7.85,6.56-10.53,10.1-19.55,3.31-33.74,13.47-37.96,16.27-15.98,10.59-27.79,25.46-33.04,42.56-11.68,6.06-17.94,13.56-16.46,18.07,1.04,3.16,6.03,5.23,9.47,5.79,1.49.24,2.87.23,4.1.09.03.6.08,1.19.13,1.78-1.01.48-2.08,1.09-3.14,1.87-2.79,2.07-6.36,5.91-6.06,8.57.31,2.79,4.89,4.63,12.26,4.79,9.03,16.57,21.03,30.45,34.6,40.55,2.11,4.29,4.95,8.86,8.81,13.32,16.24,18.78,38.3,21.54,43.74,22.06-1.84-.81-15.46-7.06-23.61-20.53,8.94,2.7,18.1,3.83,27.18,3.12,11.98-.94,22.98-4.97,32.58-10.19,7.98,2.93,14.61,3.73,17.26,3.99-3.8-2.27-7.1-5.15-9.82-8.43,14.72-9.57,25.15-21.02,29.18-25.44,8.57-9.41,14.31-18.49,18-25.16.2-.66,3.11-9.78,8.13-10.06,3.4-.19,6.32,3.77,9.29,9.29,10.72,19.95,7.51,33.18,13.4,44.61,4,7.76,13.47,17.17,38.6,21.79-7.35-18.62-16.9-49.62-16.77-88.85Z"/>
</svg>