<?xml version="1.0" encoding="UTF-8"?>
<svg id="_Слой_3" data-name="Слой 3" xmlns="http://www.w3.org/2000/svg" viewBox="0 0 284.94 284.22">
  <defs>
    <style>
      .cls-1 {
        fill: #3e99ad;
      }
    </style>
  </defs>
  <path class="cls-1" d="M219.89,133.69c-.4-3.53-8.53-67.83-49.95-86.66.4-13.67-5.8-28.08-17.76-36.71-20.07-14.5-49.49-7.81-58,5.3-3.86,5.95-2.26,11.43-10.01,25.32-2.51,4.5-4.29,6.8-5.62,11.48-2.06,7.25-1.53,14.83.02,19.43,2.61,7.76,10.35,13.71,19.89,17.2,0,.02.02.05.03.07,4.59,13.4,4.84,20.27,5.59,27.31-12.43,15.18-7.71,63.02,5.39,66.77,7.78,2.23,17.7-11.33,20.38-15.18,3.62,3.53,7.74,6.83,12.4,9.69,2.14,9.1,5.75,16.08,10.44,17.42,4.17,1.19,8.94-2.14,12.89-6.08,3.52,2.18,6.55,5,8.99,9.41,3.64,6.59,5.04,15.31,2.06,17.37-4.07,2.82-11.14-10.42-26.22-12.68-13.03-1.95-15.96,6.71-37.19,8.07-11.06.71-18.74,1.37-18.74,1.37,3.06,4.37,8.3,10.69,16.49,15.6,14.14,8.5,27.86,11.45,27.86,11.45,0,0-17.75,8.5-23.45,23.88-2.6,7.03,2.06,19.43,2.06,19.43,9.97-12.21,19.47-16.48,26.53-18.05,14.62-3.25,29.51,2.71,38.87-6.56,1.6-1.58,2.73-3.22,3.36-4.32,4.58-7.98,6.67-22.1,6.67-22.11,0,0,8.9-16.48,14.09-24.63,18.05-28.39,14.12-63.14,12.93-73.61Z"/>
</svg>