<?xml version="1.0" encoding="UTF-8"?>
<svg id="_акул" data-name="акул" xmlns="http://www.w3.org/2000/svg" viewBox="0 0 284.94 284.22">
  <defs>
    <style>
      .cls-1 {
        fill: #3e99ad;
      }
    </style>
  </defs>
  <path class="cls-1" d="M255.5,39.91c-6.05-6.38-33.07-18.02-60.42-20.22-29.05-2.33-54.48-4.36-77.47,4.21-2.22-3.33-5.13-6.88-8.95-10.2C91.78-.98,70.81.6,66.2,1.06c3.41,1.59,13.8,6.96,20.35,19.3,3.79,7.14,4.91,14,5.09,19.15-29.45,25.77-33.79,64.1-35.25,76.99-5.89,52.11,18.84,101.75,35.05,113.92-16.1,20.03-10.47,53.03-10.47,53.03,0,0,4.33-29.63,27.59-45.51,24.13-16.48,54.93-8.81,54.93-8.81,0,0-32.52-21.08-58.37-9.36,2.1-17.95,1.8-50.19,26.06-73.96,3.34-3.27,7.08-6.31,11.07-9.15,1.77,2.34,3.47,5.04,4.9,8.17,5.82,12.7,3.78,24.21,2.97,27.89,3.16-3.39,17.16-19.08,15.75-41.4-.18-2.84-.59-5.48-1.15-7.94,6.4-3.25,12.83-6.23,18.88-9.02,4.1-1.89,7.68-3.43,10.88-4.73,4.08,11.31,2.34,21.15,1.6,24.5,2.64-2.83,12.83-14.24,15.3-30.93,5.58-2.19,10.17-4.48,16.14-9.15,15.16-11.86,34.02-47.75,27.97-54.14Z"/>
</svg>